<?xml version="1.0" standalone="no"?>
<!DOCTYPE svg PUBLIC "-//W3C//DTD SVG 20010904//EN"
 "http://www.w3.org/TR/2001/REC-SVG-20010904/DTD/svg10.dtd">
<svg version="1.0" xmlns="http://www.w3.org/2000/svg"
 width="1898.000000pt" height="1942.000000pt" viewBox="0 0 1898.000000 1942.000000"
 preserveAspectRatio="xMidYMid meet">
<metadata>
Created by potrace 1.16, written by Peter Selinger 2001-2019
</metadata>
<g transform="translate(0.000000,1942.000000) scale(0.100000,-0.100000)"
fill="#ffffff" stroke="none">
<path d="M6295 19410 c-159 -32 -297 -138 -364 -280 -12 -25 -240 -729 -507
-1565 -428 -1338 -486 -1530 -491 -1600 -15 -221 114 -420 329 -508 l53 -22
2100 -5 2100 -5 65 -23 c125 -45 232 -134 288 -240 17 -33 1008 -3126 2382
-7442 1294 -4062 2364 -7410 2378 -7440 34 -74 149 -188 224 -223 128 -61 23
-58 1955 -55 l1768 3 59 23 c81 30 144 73 203 135 100 105 138 203 137 352
l-1 100 -2951 9235 c-1703 5330 -2964 9261 -2982 9298 -56 110 -156 195 -286
244 l-59 23 -3180 1 c-1749 1 -3198 -2 -3220 -6z"/>
<path d="M4233 12919 c-159 -27 -296 -126 -369 -267 -32 -63 -1381 -4285
-1394 -4364 -37 -232 115 -471 350 -551 l65 -22 3123 -3 c3432 -2 3198 -7
3327 58 174 86 277 255 277 455 l1 90 -687 2155 c-496 1553 -696 2170 -719
2209 -61 102 -168 184 -297 227 -53 18 -128 19 -1840 20 -982 1 -1808 -2
-1837 -7z"/>
<path d="M1717 5195 c-132 -36 -257 -137 -316 -255 -18 -36 -334 -1010 -713
-2195 l-681 -2130 -1 -100 c-1 -149 37 -247 137 -352 59 -62 122 -105 203
-135 l59 -23 5618 -3 c6144 -2 5679 -7 5800 54 190 96 309 317 277 517 -14 90
-1352 4288 -1391 4367 -61 120 -185 219 -320 255 -78 21 -8597 21 -8672 0z"/>
</g>
</svg>
